<?xml version="1.0" encoding="UTF-8"?>
<svg id="Layer_1" xmlns="http://www.w3.org/2000/svg" version="1.1" viewBox="0 0 1000 1000">
  <!-- Generator: Adobe Illustrator 30.3.0, SVG Export Plug-In . SVG Version: 2.1.3 Build 182)  -->
  <defs>
    <style>
      .st0 {
        fill: #4db6ac;
        stroke: #7cccbe;
        stroke-miterlimit: 10;
        stroke-width: 20px;
      }
    </style>
  </defs>
  <path class="st0" d="M46.94,810.86c103.89,35.54,326.02,58.54,357.33,54.86.69-.08,24.86-73.09,24.86-73.09,12.62-60.7,96.29-42.53,80.05,13.97-.03.1-26.44,67.4-10.71,66.55.15-.04,194.46-13.47,285.6-46.82,151.05-51.24,204.2-213.3,181.8-361.94,0-.07-.02-.13-.04-.19-11.42-94.83-193.89-291.26-10.59-308.68,1.06-.1,1.83-1.04,1.76-2.1-2.86-41.53-212.52-22.22-248.82-21.13h-.1c-67.11,5.79-135.78,17.13-200.5,35.89-168.57,55.86-440.15,154.54-419.79,371.64,2.73,43.03,7.73,88.83,4.46,131.94-2.19,102.47-91.62,127.11-53.68,136.76,4.21,1.07,5.61,1.44,8.36,2.35"/>
  <path d="M751.71,292.11c-18,45.9-103.89,16.25-73.87-31.58,22.75-34.62,91.13-12.4,73.87,31.58Z"/>
</svg>